# xmcd CD Database Entry
#
# Track frame offsets:
# 150
# 17922
# 33605
# 53627
# 67647
# 89930
# 109927
# 123347
# 141245
# 161777
#
# Disc length: 2754 seconds
#
# Revision: 7
# Processed by: cddbd v1.4PL0 Copyright (c) Steve Scherf et al.
# Submitted via: tcd 2.0b
#
DISCID=8c0ac00a
DTITLE=Chris Rice - Past the Edges
DYEAR=1998
DGENRE=
TTITLE0=Smellin' Coffee
TTITLE1=Naive
TTITLE2=The Power Of A Moment
TTITLE3=Big Enough
TTITLE4=And Your Praise Goes On
TTITLE5=Live By Faith
TTITLE6=One Of Those Days
TTITLE7=Wind And Spirit
TTITLE8=Thirsty
TTITLE9=Missin' You
EXTD=YEAR: 1998
EXTT0=
EXTT1=
EXTT2=
EXTT3=
EXTT4=
EXTT5=
EXTT6=
EXTT7=
EXTT8=
EXTT9=Secret Track at 6:20 "Cartoon Song"
PLAYORDER=
